<?xml version="1.0" standalone="no"?>
<!DOCTYPE svg PUBLIC "-//W3C//DTD SVG 20010904//EN"
 "http://www.w3.org/TR/2001/REC-SVG-20010904/DTD/svg10.dtd">
<svg version="1.0" xmlns="http://www.w3.org/2000/svg"
 width="210.000000pt" height="38.000000pt" viewBox="0 0 210.000000 38.000000"
 preserveAspectRatio="xMidYMid meet">

<g transform="translate(0.000000,38.000000) scale(0.100000,-0.100000)"
fill="#000000" stroke="none">
<path d="M23 359 c-9 -9 -13 -59 -13 -175 0 -135 3 -164 16 -175 24 -20 48 1
52 45 3 35 4 36 45 36 48 0 124 32 133 55 8 20 24 19 24 -1 0 -11 6 -14 21 -9
30 10 53 -23 33 -46 -12 -14 -12 -18 3 -31 43 -37 93 -50 93 -23 0 10 10 15
30 15 20 0 30 -5 30 -15 0 -19 13 -19 49 -1 40 21 58 45 42 56 -8 4 -11 16 -7
28 5 16 14 21 36 19 28 -2 28 -3 23 -47 -4 -35 -1 -50 14 -69 17 -20 22 -22
41 -12 19 10 22 20 22 67 l0 56 51 -44 c108 -92 109 -93 131 -79 15 9 23 10
31 2 14 -14 182 -14 208 0 15 7 24 7 34 -1 24 -20 55 5 55 45 0 31 3 35 26 35
18 0 43 -15 75 -45 42 -39 52 -44 69 -35 28 15 25 45 -7 75 -25 23 -26 27 -13
38 52 40 66 125 31 183 -28 45 -76 64 -164 64 -42 0 -79 -5 -82 -10 -4 -7 -12
-7 -25 0 -25 14 -193 13 -207 -1 -8 -8 -16 -7 -31 2 -18 11 -26 8 -67 -27 -26
-21 -62 -52 -81 -67 l-34 -29 0 56 c0 47 -3 57 -22 67 -32 17 -62 -22 -55 -72
4 -33 2 -38 -19 -42 -32 -6 -52 18 -36 44 7 10 12 21 12 23 0 7 -63 43 -88 51
-18 5 -22 2 -22 -14 0 -29 -45 -29 -53 -1 -4 17 -9 18 -34 9 -15 -5 -39 -19
-52 -29 -19 -16 -21 -23 -11 -35 15 -19 3 -57 -18 -53 -8 2 -25 21 -36 42 -34
64 -65 81 -159 84 -57 3 -86 0 -94 -9z m161 -80 c30 -24 34 -63 9 -91 -11 -13
-30 -18 -65 -18 l-48 0 0 58 c0 32 3 62 7 65 14 14 71 6 97 -14z m726 -94 c0
-63 -3 -115 -6 -115 -4 0 -36 26 -72 57 l-65 57 64 58 c35 31 67 57 72 58 4 0
7 -52 7 -115z m240 -1 c0 -102 -2 -115 -16 -110 -9 3 -47 6 -85 6 l-69 0 0 35
0 35 53 0 c71 0 98 28 61 64 -10 10 -33 16 -65 16 -48 0 -49 1 -49 30 l0 29
78 4 c42 1 80 4 85 5 4 1 7 -50 7 -114z m175 91 c29 -28 31 -51 9 -83 -12 -18
-25 -22 -65 -22 l-49 0 0 65 0 65 40 0 c30 0 47 -7 65 -25z m-775 -107 c0 -35
-23 -52 -61 -44 -27 5 -30 4 -24 -14 5 -14 2 -20 -9 -20 -9 0 -16 8 -16 19 0
14 -6 17 -25 13 -14 -2 -32 1 -40 8 -11 9 -15 9 -15 1 0 -7 -5 -9 -11 -5 -8 5
-8 8 0 14 7 3 9 14 5 23 -4 11 11 33 46 70 l53 53 48 -46 c33 -32 49 -55 49
-72z m-190 82 c0 -5 -5 -10 -11 -10 -5 0 -7 5 -4 10 3 6 8 10 11 10 2 0 4 -4
4 -10z m217 -62 c-3 -8 -6 -5 -6 6 -1 11 2 17 5 13 3 -3 4 -12 1 -19z m-206
-131 c-10 -9 -11 -8 -5 6 3 10 9 15 12 12 3 -3 0 -11 -7 -18z"/>
</g>
</svg>
